<svg width="64" height="64" viewBox="0 0 64 64" fill="none" xmlns="http://www.w3.org/2000/svg">
  <!-- Calendar body (teal) -->
  <path d="M15,16 L49,16 A5,5 0 0,1 54,21 L54,52 A5,5 0 0,1 49,57 L15,57 A5,5 0 0,1 10,52 L10,21 A5,5 0 0,1 15,16 Z" fill="#90D5D2"/>

  <!-- White content area -->
  <path d="M10,27 L54,27 L54,52 A5,5 0 0,1 49,57 L15,57 A5,5 0 0,1 10,52 Z" fill="#FFFFFF"/>

  <!-- Dark teal border -->
  <path d="M15,16 L49,16 A5,5 0 0,1 54,21 L54,52 A5,5 0 0,1 49,57 L15,57 A5,5 0 0,1 10,52 L10,21 A5,5 0 0,1 15,16 Z" stroke="#2D6B6B" stroke-width="2.4" fill="none"/>

  <!-- Header divider -->
  <line x1="10" y1="27" x2="54" y2="27" stroke="#2D6B6B" stroke-width="1.6"/>

  <!-- Binder ring 1 -->
  <path d="M19,19 V12 A4,5 0 0,1 27,12 V19" stroke="#2D6B6B" stroke-width="2.6" stroke-linecap="round" fill="none"/>

  <!-- Binder ring 2 -->
  <path d="M27,19 V12 A4,5 0 0,1 35,12 V19" stroke="#2D6B6B" stroke-width="2.6" stroke-linecap="round" fill="none"/>

  <!-- Binder ring 3 -->
  <path d="M35,19 V12 A4,5 0 0,1 43,12 V19" stroke="#2D6B6B" stroke-width="2.6" stroke-linecap="round" fill="none"/>

  <!-- Row 1 text lines -->
  <line x1="15" y1="31" x2="24" y2="31" stroke="#C4C4C4" stroke-width="1.6" stroke-linecap="round"/>
  <line x1="15" y1="34" x2="21" y2="34" stroke="#C4C4C4" stroke-width="1.6" stroke-linecap="round"/>

  <!-- Row 2 text lines -->
  <line x1="15" y1="38" x2="24" y2="38" stroke="#C4C4C4" stroke-width="1.6" stroke-linecap="round"/>
  <line x1="15" y1="41" x2="21" y2="41" stroke="#C4C4C4" stroke-width="1.6" stroke-linecap="round"/>

  <!-- Row 3 text lines -->
  <line x1="15" y1="45" x2="24" y2="45" stroke="#C4C4C4" stroke-width="1.6" stroke-linecap="round"/>
  <line x1="15" y1="48" x2="21" y2="48" stroke="#C4C4C4" stroke-width="1.6" stroke-linecap="round"/>

  <!-- Row 4 text lines -->
  <line x1="15" y1="52" x2="24" y2="52" stroke="#C4C4C4" stroke-width="1.6" stroke-linecap="round"/>
  <line x1="15" y1="55" x2="21" y2="55" stroke="#C4C4C4" stroke-width="1.6" stroke-linecap="round"/>

  <!-- Row 1 squares -->
  <rect x="28" y="29" width="5" height="5" rx="0.5" fill="#E85B6F"/>
  <rect x="34.5" y="29" width="5" height="5" rx="0.5" fill="#E85B6F"/>
  <rect x="41" y="29" width="5" height="5" rx="0.5" fill="#E85B6F"/>

  <!-- Row 2 squares -->
  <rect x="28" y="36" width="5" height="5" rx="0.5" fill="#E85B6F"/>
  <rect x="34.5" y="36" width="5" height="5" rx="0.5" fill="#E85B6F"/>
  <rect x="41" y="36" width="5" height="5" rx="0.5" fill="#E85B6F"/>

  <!-- Row 3 squares -->
  <rect x="28" y="43" width="5" height="5" rx="0.5" fill="#E85B6F"/>
  <rect x="34.5" y="43" width="5" height="5" rx="0.5" fill="#E85B6F"/>
  <rect x="41" y="43" width="5" height="5" rx="0.5" fill="#E85B6F"/>

  <!-- Row 4 squares -->
  <rect x="28" y="50" width="5" height="5" rx="0.5" fill="#E85B6F"/>
  <rect x="34.5" y="50" width="5" height="5" rx="0.5" fill="#E85B6F"/>
  <rect x="41" y="50" width="5" height="5" rx="0.5" fill="#E85B6F"/>
</svg>
