<svg width="64" height="64" viewBox="0 0 64 64" fill="none" xmlns="http://www.w3.org/2000/svg">
  <!-- Base card -->
  <rect x="2.5" y="2.5" width="59" height="59" rx="14.5" fill="#F3F5F9"/>
  <rect x="2.5" y="2.5" width="59" height="59" rx="14.5" stroke="#CBD3E2"/>

  <!-- Orange gradient header strip -->
  <path d="M2 17.5C2 9.492 8.492 3 16.5 3H47.5C55.508 3 62 9.492 62 17.5V24H2V17.5Z" fill="url(#headerGrad)"/>

  <!-- Task 1: completed (filled orange circle with checkmark + line) -->
  <circle cx="17" cy="33" r="3.8" fill="#F48A57"/>
  <path d="M14.6 33L16.1 34.6L19.4 31.2" stroke="#fff" stroke-width="1.8" stroke-linecap="round" stroke-linejoin="round"/>
  <rect x="24" y="31.5" width="24" height="3" rx="1.5" fill="#C8D1E0"/>

  <!-- Task 2: pending (empty circle + line) -->
  <circle cx="17" cy="43" r="3.8" stroke="#C8D1E0" stroke-width="1.5" fill="none"/>
  <rect x="24" y="41.5" width="20" height="3" rx="1.5" fill="#DDE7F8"/>

  <!-- Task 3: pending (empty circle + shorter line) -->
  <circle cx="17" cy="53" r="3.8" stroke="#C8D1E0" stroke-width="1.5" fill="none"/>
  <rect x="24" y="51.5" width="16" height="3" rx="1.5" fill="#DDE7F8"/>

  <defs>
    <linearGradient id="headerGrad" x1="2" y1="13.5" x2="62" y2="13.5" gradientUnits="userSpaceOnUse">
      <stop stop-color="#E77D4E"/>
      <stop offset="1" stop-color="#F5A166"/>
    </linearGradient>
  </defs>
</svg>
