<svg width="35" height="35" viewBox="0 0 35 35" fill="none" xmlns="http://www.w3.org/2000/svg">
<path d="M32.0833 17.5C32.0833 9.46459 25.5354 2.91667 17.5 2.91667C9.46454 2.91667 2.91663 9.46459 2.91663 17.5C2.91663 21.7292 4.73954 25.5354 7.62704 28.2042C7.62704 28.2188 7.62704 28.2188 7.61246 28.2333C7.75829 28.3792 7.93329 28.4958 8.07913 28.6271C8.16663 28.7 8.23954 28.7729 8.32704 28.8313C8.58954 29.05 8.88121 29.2542 9.15829 29.4583C9.26038 29.5313 9.34788 29.5896 9.44996 29.6625C9.72704 29.8521 10.0187 30.0271 10.325 30.1875C10.427 30.2458 10.5437 30.3188 10.6458 30.3771C10.9375 30.5375 11.2437 30.6833 11.5645 30.8146C11.6812 30.8729 11.7979 30.9313 11.9145 30.975C12.2354 31.1063 12.5562 31.2229 12.877 31.325C12.9937 31.3688 13.1104 31.4125 13.227 31.4417C13.577 31.5438 13.927 31.6313 14.277 31.7188C14.3791 31.7479 14.4812 31.7771 14.5979 31.7917C15.0062 31.8792 15.4145 31.9375 15.8375 31.9813C15.8958 31.9813 15.9541 31.9958 16.0125 32.0104C16.5083 32.0542 17.0041 32.0833 17.5 32.0833C17.9958 32.0833 18.4916 32.0542 18.9729 32.0104C19.0312 32.0104 19.0895 31.9958 19.1479 31.9813C19.5708 31.9375 19.9791 31.8792 20.3875 31.7917C20.4895 31.7771 20.5916 31.7333 20.7083 31.7188C21.0583 31.6313 21.4229 31.5583 21.7583 31.4417C21.875 31.3979 21.9916 31.3542 22.1083 31.325C22.4291 31.2083 22.7645 31.1063 23.0708 30.975C23.1875 30.9313 23.3041 30.8729 23.4208 30.8146C23.727 30.6833 24.0333 30.5375 24.3395 30.3771C24.4562 30.3188 24.5583 30.2458 24.6604 30.1875C24.952 30.0125 25.2437 29.8521 25.5354 29.6625C25.6375 29.6042 25.725 29.5313 25.827 29.4583C26.1187 29.2542 26.3958 29.05 26.6583 28.8313C26.7458 28.7583 26.8187 28.6854 26.9062 28.6271C27.0666 28.4958 27.227 28.3646 27.3729 28.2333C27.3729 28.2188 27.3729 28.2188 27.3583 28.2042C30.2604 25.5354 32.0833 21.7292 32.0833 17.5ZM24.7041 24.7479C20.752 22.0938 14.277 22.0938 10.2958 24.7479C9.65413 25.1708 9.12913 25.6667 8.69163 26.2063C6.47496 23.9604 5.10413 20.8833 5.10413 17.5C5.10413 10.6604 10.6604 5.10417 17.5 5.10417C24.3395 5.10417 29.8958 10.6604 29.8958 17.5C29.8958 20.8833 28.525 23.9604 26.3083 26.2063C25.8854 25.6667 25.3458 25.1708 24.7041 24.7479Z" fill="#9799AA" stroke="#9799AA" stroke-width="0.8"/>
<path d="M17.5 10.1058C14.4813 10.1058 12.0312 12.5558 12.0312 15.5746C12.0312 18.535 14.35 20.9412 17.4271 21.0287C17.4708 21.0287 17.5292 21.0287 17.5583 21.0287C17.5875 21.0287 17.6312 21.0287 17.6604 21.0287C17.675 21.0287 17.6896 21.0287 17.6896 21.0287C20.6354 20.9267 22.9542 18.535 22.9688 15.5746C22.9688 12.5558 20.5188 10.1058 17.5 10.1058Z" fill="#9799AA" stroke="#9799AA"/>
</svg>
