<svg version="1.1" id="Layer_1" xmlns="http://www.w3.org/2000/svg" xmlns:xlink="http://www.w3.org/1999/xlink" x="0px" y="0px"
	 width="100%" viewBox="0 0 502 497" enable-background="new 0 0 502 497" xml:space="preserve">
<path fill="#010101" opacity="1.000000" stroke="none" 
	d="
M352.000000,498.000000 
	C234.666687,498.000000 117.833389,498.000000 1.000063,498.000000 
	C1.000042,332.333405 1.000042,166.666809 1.000021,1.000152 
	C168.333221,1.000101 335.666443,1.000101 502.999756,1.000051 
	C502.999817,166.666519 502.999817,332.333038 502.999908,497.999786 
	C452.833344,498.000000 402.666656,498.000000 352.000000,498.000000 
M68.029182,195.038712 
	C68.029182,195.038712 68.040031,195.116760 67.602562,195.270218 
	C67.326202,195.449280 67.159325,195.700943 66.541679,196.390625 
	C55.459713,207.481369 44.377747,218.572098 33.295776,229.662842 
	C33.655689,230.141953 34.015598,230.621048 34.375507,231.100159 
	C36.321846,230.959167 38.268185,230.818161 41.116470,230.709259 
	C48.685970,230.547241 56.255470,230.385239 64.174828,230.932785 
	C67.540565,231.140152 70.906296,231.347519 75.065582,231.549423 
	C79.677071,231.405136 84.288551,231.260849 89.276054,231.714371 
	C91.185791,231.860718 93.095520,232.007080 95.924812,232.205719 
	C103.948792,232.375656 111.972763,232.545609 120.487648,233.336960 
	C121.703293,233.504349 122.918930,233.671738 125.013123,233.880096 
	C127.363930,233.739151 129.714737,233.598190 132.050262,234.274048 
	C134.017441,234.383240 135.984604,234.492447 138.719681,234.519379 
	C139.746109,234.449844 140.772537,234.380310 142.027939,234.969650 
	C143.671249,235.113571 145.314560,235.257477 147.780243,235.374191 
	C149.148956,235.301041 150.517654,235.227890 152.225601,235.733749 
	C153.818710,235.870575 155.411835,236.007385 157.754272,236.110123 
	C158.502747,236.098969 159.251221,236.087830 160.331161,236.656982 
	C162.260834,236.720917 164.190506,236.784851 166.980560,237.002335 
	C174.191833,237.573227 181.403107,238.144119 188.679031,239.102066 
	C188.669006,239.213974 188.658966,239.325882 188.648956,239.437805 
	C188.742264,239.364777 188.922363,239.236725 188.916077,239.226822 
	C188.788834,239.026123 188.640213,238.838959 189.300568,239.206726 
	C201.138290,240.577972 212.992752,241.820175 224.809311,243.354431 
	C238.348602,245.112366 251.871521,247.015930 265.369324,249.068130 
	C277.300995,250.882217 289.215210,252.840607 301.087982,255.004730 
	C313.291443,257.229156 325.451263,259.703674 337.595245,262.236511 
	C341.011780,262.949097 344.305206,264.251801 347.986359,265.385925 
	C343.812653,269.795258 340.072693,273.746399 335.750671,277.196014 
	C332.615112,279.544617 329.479553,281.893250 326.249481,284.285431 
	C326.249481,284.285431 326.256866,284.389252 325.519623,284.191528 
	C323.433228,285.109589 321.318878,285.969482 319.265900,286.957062 
	C314.057220,289.462708 308.876099,292.025635 303.238068,294.588074 
	C303.238068,294.588074 302.893311,294.871704 302.073608,294.742218 
	C294.712555,296.783539 287.351501,298.824860 279.121338,300.974640 
	C273.081421,301.632477 267.041473,302.290314 260.569672,302.199799 
	C255.050888,302.312012 249.532089,302.424255 243.325027,302.559418 
	C242.637665,302.588013 241.950317,302.616608 241.056274,301.950409 
	C239.370453,301.933197 237.684647,301.916016 235.303467,301.755707 
	C234.593674,301.765839 233.883881,301.775970 232.934021,301.231232 
	C231.957443,301.182922 230.980865,301.134583 229.126297,300.950104 
	C225.775497,300.599640 222.424683,300.249146 218.855255,299.420563 
	C218.282867,299.046936 217.710480,298.673340 216.508835,298.520905 
	C216.069107,298.574890 215.629395,298.628876 215.046951,297.961243 
	C211.038147,296.850433 207.029343,295.739624 202.395630,294.726501 
	C201.669815,294.364105 200.944000,294.001740 200.006821,292.949432 
	C197.684616,292.286438 195.362396,291.623444 192.621750,290.812134 
	C192.621750,290.812134 192.202271,290.666809 192.099396,289.985565 
	C189.769653,288.956390 187.439911,287.927216 185.000214,286.977722 
	C185.000214,286.977722 185.097198,286.881866 185.107590,286.183533 
	C181.678757,284.183960 178.249908,282.184387 174.295380,279.790558 
	C173.605698,279.424744 172.916016,279.058960 172.273285,277.976471 
	C171.101273,277.415436 169.929276,276.854401 168.785309,276.230438 
	C168.785309,276.230438 168.718353,276.214233 168.974548,275.568329 
	C168.008667,274.691650 167.042786,273.814972 165.713058,272.415741 
	C164.961334,272.063568 164.209625,271.711365 163.834396,270.736328 
	C161.900696,268.815186 159.966980,266.894012 158.002426,265.000000 
	C158.002426,265.000000 158.026901,264.969208 158.048325,264.310272 
	C157.179108,263.435516 156.309891,262.560791 154.768433,261.615814 
	C154.585052,260.981781 154.401657,260.347748 154.324356,258.987549 
	C153.048096,256.900177 151.771851,254.812820 149.908798,252.291840 
	C149.559860,250.901031 149.210907,249.510239 148.939407,247.314911 
	C147.520401,241.611832 147.020370,241.328400 139.048889,242.154556 
	C136.427597,242.335068 133.806320,242.515564 131.141571,241.964645 
	C130.361404,241.724014 129.581238,241.483398 128.020950,241.291779 
	C125.391739,241.460587 122.762535,241.629395 120.100746,241.213593 
	C119.427307,240.931381 118.753860,240.649155 117.164635,240.498108 
	C113.796028,240.638367 110.427422,240.778610 106.802277,240.441147 
	C106.202873,240.245117 105.603462,240.049088 104.080025,239.769241 
	C100.052948,239.830612 96.025871,239.891998 91.532951,239.417633 
	C89.021294,239.287628 86.509636,239.157623 83.104881,238.924866 
	C71.978706,238.924866 60.852528,238.924866 48.638157,238.924866 
	C51.819843,241.031799 54.286495,242.614380 56.700890,244.273056 
	C66.069191,250.709030 75.454971,257.120392 84.769997,263.632843 
	C96.113129,271.563232 107.645851,279.253296 118.636513,287.649506 
	C133.992508,299.380554 148.987274,311.589203 164.010620,323.749146 
	C172.506424,330.625702 180.750046,337.813782 188.983902,345.547028 
	C189.992249,346.362305 191.000595,347.177612 192.000000,348.000000 
	C192.000000,348.000000 192.007706,347.990021 192.009644,348.690216 
	C195.624832,351.490997 199.240021,354.291809 203.312714,357.346741 
	C203.497208,357.636230 203.681702,357.925690 203.829147,358.876709 
	C204.627762,359.526184 205.426361,360.175690 206.577499,361.067505 
	C206.577499,361.067505 206.798615,361.433746 206.856949,362.112457 
	C208.187988,362.776703 209.519043,363.440918 211.490387,364.336700 
	C212.902069,366.118988 214.313751,367.901306 215.810547,370.248260 
	C216.672455,370.927185 217.534348,371.606079 218.611572,372.379608 
	C218.611572,372.379608 218.734329,372.580200 218.775055,373.123077 
	C219.339523,373.499390 219.903976,373.875671 220.669662,374.344849 
	C220.669662,374.344849 220.744156,374.553589 220.854187,375.199493 
	C223.160446,376.852325 225.466690,378.505127 227.864883,380.156525 
	C227.864883,380.156525 227.832520,380.242615 227.722244,380.948853 
	C229.049194,382.026428 230.376144,383.104004 232.308197,384.481812 
	C235.445343,387.857544 238.582504,391.233276 241.723251,395.253113 
	C242.677536,395.913544 243.631821,396.573975 245.133362,397.467346 
	C245.338379,397.801300 245.543411,398.135254 245.741180,399.126801 
	C246.847412,400.402008 247.953644,401.677216 248.998917,402.997101 
	C248.998917,402.997101 249.049652,402.940613 249.157852,403.678589 
	C253.413971,407.633331 254.951263,407.344696 258.000000,402.000000 
	C258.000000,402.000000 258.015778,402.012848 258.708282,402.027985 
	C269.013824,391.852142 279.338165,381.695160 289.594666,371.470154 
	C290.579590,370.488281 291.142700,369.083282 292.092865,367.493805 
	C292.092865,367.493805 292.384857,367.183350 292.981689,367.274658 
	C293.726471,366.680267 294.471222,366.085876 295.460236,365.444702 
	C295.460236,365.444702 295.682953,365.334076 296.253510,365.148376 
	C296.814880,364.402130 297.376282,363.655884 298.364319,362.429260 
	C299.353638,361.350922 300.342957,360.272583 302.031830,359.273956 
	C304.109802,357.328156 306.187775,355.382385 308.183167,353.279877 
	C308.183167,353.279877 308.340485,353.198334 308.986786,353.208466 
	C309.362793,352.531738 309.738800,351.854980 310.330292,350.548370 
	C311.267914,350.063751 312.205536,349.579132 313.841827,349.160187 
	C318.232330,345.112274 322.622833,341.064331 327.000000,337.000000 
	C327.000000,337.000000 327.016296,337.013184 327.683228,337.040527 
	C328.789612,336.028442 329.895966,335.016357 331.526642,333.547089 
	C333.214081,332.116913 334.901550,330.686768 337.186432,329.145447 
	C337.495300,328.479980 337.804169,327.814514 338.019318,327.072449 
	C338.019318,327.072449 338.136169,327.104004 338.851257,327.271637 
	C342.324921,324.689728 345.892700,322.222809 349.237274,319.483276 
	C351.276489,317.812958 352.971893,315.722900 355.000000,314.000000 
	C355.000000,314.000000 354.821747,313.820984 355.600952,313.941772 
	C358.354248,313.834778 360.058502,312.770630 359.578430,309.561676 
	C359.578430,309.561676 359.624634,309.458527 360.309631,309.759369 
	C362.888550,307.532379 365.467499,305.305389 368.333954,302.810852 
	C368.333954,302.810852 368.717224,302.725189 369.375183,302.988159 
	C369.900269,302.301239 370.425385,301.614319 371.476654,300.507233 
	C403.430328,275.225464 437.267426,252.571747 471.118988,229.551468 
	C452.063843,224.826187 433.308502,220.730392 414.474213,217.037262 
	C399.848877,214.169434 385.148376,211.660797 370.436920,209.264954 
	C360.330719,207.619110 350.148438,206.440094 339.511383,204.461197 
	C338.292572,204.371323 337.073761,204.281448 335.112152,204.228317 
	C334.379669,204.337158 333.647156,204.445984 333.081177,203.697342 
	C332.324463,203.552887 331.567719,203.408432 330.208740,203.298264 
	C329.212280,203.421738 328.215851,203.545197 327.104126,203.056946 
	C326.077179,202.863907 325.050262,202.670868 323.313629,202.595322 
	C322.597809,202.653763 321.882019,202.712204 320.966736,202.184113 
	C319.977051,202.062683 318.987335,201.941254 317.164581,201.794357 
	C315.780212,201.807648 314.395813,201.820923 313.007019,201.310394 
	C312.336151,201.236649 311.665314,201.162903 310.128723,201.005310 
	C303.293976,200.340347 296.461884,199.646378 289.623749,199.018555 
	C282.748413,198.387344 275.867004,197.821976 268.415009,196.675415 
	C266.898285,196.526398 265.381592,196.377365 263.034790,196.206268 
	C261.658142,196.336594 260.281494,196.466904 258.762939,195.750565 
	C257.438934,195.633423 256.114929,195.516281 254.096542,195.381790 
	C252.468079,195.510345 250.839600,195.638901 248.934052,195.224274 
	C247.953918,195.080246 246.973801,194.936203 245.160782,194.672424 
	C243.480911,194.741684 241.801056,194.810944 239.809341,194.334778 
	C238.538315,194.208893 237.267288,194.083008 235.116837,193.811081 
	C232.741653,193.914169 230.366470,194.017258 227.728882,193.524017 
	C225.775711,193.421234 223.822556,193.318451 221.008301,193.134674 
	C218.990662,193.251312 216.973022,193.367935 214.564697,192.835464 
	C213.668106,192.626068 212.771515,192.416656 211.055359,192.146667 
	C208.119492,192.335434 205.183624,192.524185 201.957397,192.008133 
	C200.579239,191.777802 199.201080,191.547485 197.007263,191.333588 
	C192.733002,191.481842 188.458740,191.630112 184.098679,191.016708 
	C182.062561,190.918243 180.026428,190.819778 177.246277,190.664963 
	C176.251556,190.663025 175.256851,190.661072 174.311676,189.994522 
	C174.216019,189.337708 174.120361,188.680893 174.442490,187.924988 
	C174.442490,187.924988 174.844193,187.773346 175.546310,187.820831 
	C178.469589,185.699112 181.392883,183.577377 184.896408,181.412048 
	C185.206375,181.193756 185.516342,180.975464 186.517944,180.993988 
	C188.056534,180.045547 189.595123,179.097122 191.788895,177.805756 
	C200.318298,174.964310 208.728882,171.663147 217.412628,169.418808 
	C225.130814,167.424042 233.117386,165.810135 241.048126,165.464203 
	C250.629425,165.046265 260.305725,165.818451 269.886627,166.679123 
	C278.135406,167.420120 286.446991,168.437439 294.473389,170.390549 
	C301.794861,172.172134 309.022949,174.847443 315.824707,178.104980 
	C322.053833,181.088257 327.733612,185.263519 333.510284,189.130463 
	C337.229553,191.620209 340.350220,195.292023 344.351624,196.994949 
	C348.725586,198.856461 353.781708,199.213074 358.582336,199.954941 
	C370.780212,201.839981 383.060028,203.249512 395.199585,205.444016 
	C413.552368,208.761719 431.807495,212.617294 450.121368,216.155029 
	C452.724304,216.657852 455.424164,216.658951 458.476929,216.927231 
	C455.673401,213.553238 453.515167,210.955856 451.263489,207.696152 
	C449.555054,206.424728 447.846619,205.153305 445.511963,203.634140 
	C438.373627,196.390259 431.235291,189.146378 424.001038,181.181931 
	C423.239746,180.598434 422.478485,180.014938 421.333099,178.879242 
	C416.958740,174.512115 412.584381,170.144974 408.240814,165.057755 
	C407.403198,164.505478 406.565613,163.953201 405.320404,162.867294 
	C399.161774,156.623001 393.003143,150.378693 386.713501,143.374512 
	C384.363586,142.582230 382.014648,141.100586 379.663635,141.097321 
	C295.713989,140.980927 211.764130,140.999908 127.814308,141.026596 
	C126.178795,141.027115 124.543388,141.345154 122.704796,142.169876 
	C118.827026,145.806244 114.949257,149.442612 110.380585,152.942627 
	C108.202400,155.237564 106.024223,157.532501 103.922699,159.860275 
	C103.922699,159.860275 103.842194,159.882080 103.157181,159.923950 
	C98.218079,164.760925 93.198082,169.518661 88.361717,174.456268 
	C83.103951,179.824142 78.016861,185.359177 72.376930,191.259567 
	C71.355217,192.357727 70.333504,193.455887 68.830452,194.299728 
	C68.589294,194.550232 68.348137,194.800735 68.029182,195.038712 
M252.500473,12.031323 
	C247.395538,12.070648 242.290604,12.109972 237.185669,12.149297 
	C237.220093,12.495619 237.254532,12.841940 237.288956,13.188261 
	C246.987900,13.188261 256.686859,13.188261 266.385803,13.188261 
	C266.381989,12.798007 266.378174,12.407753 266.374359,12.017499 
	C262.080566,12.017499 257.786774,12.017499 252.500473,12.031323 
M13.181063,245.576736 
	C13.181063,242.904587 13.181063,240.232452 13.181063,237.560303 
	C12.889544,237.569382 12.598027,237.578476 12.306509,237.587555 
	C12.306509,247.190598 12.306509,256.793640 12.306509,266.396667 
	C12.584612,266.396362 12.862715,266.396088 13.140818,266.395782 
	C13.140818,259.782471 13.140818,253.169174 13.181063,245.576736 
z"/>
<path fill="#FDFDFD" opacity="1.000000" stroke="none" 
	d="
M302.893311,294.871704 
	C302.893311,294.871704 303.238068,294.588074 303.826294,294.782745 
	C311.695312,291.448029 318.976105,287.918640 326.256866,284.389252 
	C326.256866,284.389252 326.249481,284.285431 326.651123,284.254974 
	C330.146057,282.048859 333.239410,279.873199 336.332733,277.697510 
	C340.072693,273.746399 343.812653,269.795258 347.986359,265.385925 
	C344.305206,264.251801 341.011780,262.949097 337.595245,262.236511 
	C325.451263,259.703674 313.291443,257.229156 301.087982,255.004730 
	C289.215210,252.840607 277.300995,250.882217 265.369324,249.068130 
	C251.871521,247.015930 238.348602,245.112366 224.809311,243.354431 
	C212.992752,241.820175 201.138290,240.577972 188.929138,238.942078 
	C188.557709,238.677444 188.614380,238.715027 188.614380,238.715027 
	C181.403107,238.144119 174.191833,237.573227 166.465179,236.576752 
	C163.966415,236.126343 161.983063,236.101517 159.999695,236.076691 
	C159.251221,236.087830 158.502747,236.098969 157.097534,235.854858 
	C154.922638,235.451324 153.404510,235.303024 151.886368,235.154724 
	C150.517654,235.227890 149.148956,235.301041 147.351440,234.942719 
	C145.214752,234.444412 143.506851,234.377594 141.798965,234.310776 
	C140.772537,234.380310 139.746109,234.449844 138.214417,234.190735 
	C135.827957,233.727142 133.946762,233.592178 132.065552,233.457230 
	C129.714737,233.598190 127.363930,233.739151 124.536346,233.512268 
	C122.705299,233.001480 121.351021,232.858505 119.996742,232.715546 
	C111.972763,232.545609 103.948792,232.375656 95.286865,231.808319 
	C92.732628,231.312805 90.816330,231.214676 88.900040,231.116577 
	C84.288551,231.260849 79.677071,231.405136 74.583115,231.141815 
	C70.675415,230.563873 67.250191,230.393555 63.824970,230.223221 
	C56.255470,230.385239 48.685970,230.547241 40.629280,230.344757 
	C39.164074,229.403076 38.186062,228.825882 36.436005,227.793060 
	C38.424900,226.127716 40.207134,224.863480 41.718948,223.332245 
	C51.043343,213.887985 60.306770,204.383514 69.552177,194.787476 
	C69.513885,194.675873 69.311790,194.554047 69.311790,194.554047 
	C70.333504,193.455887 71.355217,192.357727 72.958687,191.066284 
	C82.103676,182.461761 90.700600,174.084335 99.202148,165.611221 
	C100.932930,163.886230 102.304840,161.801147 103.842194,159.882080 
	C103.842194,159.882080 103.922699,159.860275 104.231514,159.777496 
	C106.717384,157.489471 108.894432,155.284225 111.071487,153.078979 
	C114.949257,149.442612 118.827026,145.806244 122.843819,141.826233 
	C122.982841,141.482574 122.907433,141.516190 122.750832,142.007355 
	C128.892883,142.664017 135.191544,142.972931 141.490189,142.972092 
	C188.957153,142.965759 236.424118,142.898514 284.190491,142.888031 
	C284.690155,142.906006 284.890411,142.886246 285.550751,142.918533 
	C318.674103,142.988281 351.337311,143.005966 384.151306,143.317474 
	C385.149536,143.785675 385.997009,143.960037 386.844513,144.134399 
	C393.003143,150.378693 399.161774,156.623001 405.517761,163.465332 
	C406.546783,164.634872 407.378387,165.206360 408.210022,165.777847 
	C412.584381,170.144974 416.958740,174.512115 421.555176,179.473404 
	C422.550476,180.679214 423.323700,181.290848 424.096954,181.902496 
	C431.235291,189.146378 438.373627,196.390259 445.814575,204.106140 
	C447.863739,205.838242 449.610321,207.098373 451.356934,208.358490 
	C453.515167,210.955856 455.673401,213.553238 458.476929,216.927231 
	C455.424164,216.658951 452.724304,216.657852 450.121368,216.155029 
	C431.807495,212.617294 413.552368,208.761719 395.199585,205.444016 
	C383.060028,203.249512 370.780212,201.839981 358.582336,199.954941 
	C353.781708,199.213074 348.725586,198.856461 344.351624,196.994949 
	C340.350220,195.292023 337.229553,191.620209 333.510284,189.130463 
	C327.733612,185.263519 322.053833,181.088257 315.824707,178.104980 
	C309.022949,174.847443 301.794861,172.172134 294.473389,170.390549 
	C286.446991,168.437439 278.135406,167.420120 269.886627,166.679123 
	C260.305725,165.818451 250.629425,165.046265 241.048126,165.464203 
	C233.117386,165.810135 225.130814,167.424042 217.412628,169.418808 
	C208.728882,171.663147 200.318298,174.964310 191.083969,178.008530 
	C188.861465,179.059921 187.343887,179.908554 185.826309,180.757172 
	C185.516342,180.975464 185.206375,181.193756 184.258698,181.304077 
	C180.695374,183.388519 177.769775,185.580933 174.844193,187.773346 
	C174.844193,187.773346 174.442490,187.924988 173.899261,187.756241 
	C171.970428,188.466110 170.584808,189.344727 169.199188,190.223358 
	C169.331329,190.520203 169.463455,190.817047 169.595596,191.113907 
	C171.151108,190.962311 172.706619,190.810715 174.262131,190.659119 
	C175.256851,190.661072 176.251556,190.663025 177.804871,191.069611 
	C180.303787,191.575623 182.244141,191.677002 184.184479,191.778381 
	C188.458740,191.630112 192.733002,191.481842 197.469086,191.718460 
	C199.369873,192.306534 200.808807,192.509735 202.247757,192.712936 
	C205.183624,192.524185 208.119492,192.335434 211.473557,192.509308 
	C212.912964,193.076157 213.934174,193.280350 214.955383,193.484558 
	C216.973022,193.367935 218.990662,193.251312 221.522385,193.528564 
	C224.021408,193.988434 226.006348,194.054398 227.991287,194.120361 
	C230.366470,194.017258 232.741653,193.914169 235.717041,194.245667 
	C237.585220,194.746902 238.853210,194.813553 240.121185,194.880219 
	C241.801056,194.810944 243.480911,194.741684 245.629150,195.141235 
	C247.135406,195.662521 248.173264,195.714981 249.211136,195.767456 
	C250.839600,195.638901 252.468079,195.510345 254.460220,195.729462 
	C256.184204,196.250504 257.544525,196.423859 258.904846,196.597214 
	C260.281494,196.466904 261.658142,196.336594 263.465210,196.589569 
	C265.593201,197.057831 267.290741,197.142792 268.988281,197.227753 
	C275.867004,197.821976 282.748413,198.387344 289.623749,199.018555 
	C296.461884,199.646378 303.293976,200.340347 310.579376,201.324112 
	C311.690491,201.706680 312.350983,201.770447 313.011444,201.834198 
	C314.395813,201.820923 315.780212,201.807648 317.716736,202.163971 
	C319.234650,202.612595 320.200409,202.691620 321.166199,202.770630 
	C321.882019,202.712204 322.597809,202.653763 323.817871,202.912918 
	C325.287903,203.376572 326.253632,203.522629 327.219391,203.668671 
	C328.215851,203.545197 329.212280,203.421738 330.566467,203.547089 
	C331.587708,204.048889 332.251190,204.301849 332.914673,204.554810 
	C333.647156,204.445984 334.379669,204.337158 335.611816,204.512268 
	C337.407745,204.881622 338.703949,204.967010 340.000183,205.052414 
	C350.148438,206.440094 360.330719,207.619110 370.436920,209.264954 
	C385.148376,211.660797 399.848877,214.169434 414.474213,217.037262 
	C433.308502,220.730392 452.063843,224.826187 471.118988,229.551468 
	C437.267426,252.571747 403.430328,275.225464 370.893005,300.692871 
	C369.778625,301.494049 369.247925,302.109619 368.717224,302.725189 
	C368.717224,302.725189 368.333954,302.810852 367.840637,302.966644 
	C364.773102,305.234467 362.198883,307.346497 359.624634,309.458527 
	C359.624634,309.458527 359.578430,309.561676 359.227234,309.692322 
	C357.524628,311.155640 356.173187,312.488312 354.821747,313.820984 
	C354.821747,313.820984 355.000000,314.000000 354.557861,313.953674 
	C348.789215,318.306274 343.462677,322.705139 338.136169,327.104004 
	C338.136169,327.104004 338.019318,327.072449 337.739563,327.101135 
	C337.169556,327.838745 336.879303,328.547668 336.589020,329.256622 
	C334.901550,330.686768 333.214081,332.116913 330.902008,333.708130 
	C329.190338,334.917175 328.103302,335.965179 327.016296,337.013184 
	C327.016296,337.013184 327.000000,337.000000 326.655548,337.015564 
	C321.921783,341.052246 317.532471,345.073364 313.143158,349.094513 
	C312.205536,349.579132 311.267914,350.063751 309.854614,350.822449 
	C309.032806,351.797150 308.686646,352.497742 308.340485,353.198334 
	C308.340485,353.198334 308.183167,353.279877 307.882935,353.240570 
	C305.499207,355.198914 303.415741,357.196594 301.332275,359.194275 
	C300.342957,360.272583 299.353638,361.350922 297.765778,362.666107 
	C296.672485,363.713348 296.177734,364.523712 295.682953,365.334076 
	C295.682953,365.334076 295.460236,365.444702 295.104645,365.188080 
	C293.960968,365.682068 293.172913,366.432709 292.384857,367.183350 
	C292.384857,367.183350 292.092865,367.493805 291.653381,367.715912 
	C286.124451,372.604645 280.791229,377.036102 276.006104,381.996338 
	C269.781555,388.448761 263.992340,395.321198 258.015778,402.012848 
	C258.015778,402.012848 258.000000,402.000000 257.657104,401.977356 
	C256.073792,403.019897 254.833374,404.085083 253.775558,404.993469 
	C252.041336,404.240173 250.545502,403.590393 249.049652,402.940613 
	C249.049652,402.940613 248.998917,402.997101 249.058990,402.614929 
	C247.995514,400.978241 246.871964,399.723724 245.748428,398.469208 
	C245.543411,398.135254 245.338379,397.801300 244.928024,397.022491 
	C243.721680,395.921417 242.720673,395.265198 241.719666,394.609009 
	C238.582504,391.233276 235.445343,387.857544 232.055603,384.001343 
	C230.479507,382.428131 229.156021,381.335358 227.832520,380.242615 
	C227.832520,380.242615 227.864883,380.156525 227.845047,379.811157 
	C225.464859,377.828369 223.104507,376.190979 220.744156,374.553589 
	C220.744156,374.553589 220.669662,374.344849 220.658417,373.920898 
	C220.009567,373.191345 219.371948,372.885773 218.734329,372.580200 
	C218.734329,372.580200 218.611572,372.379608 218.633484,372.013245 
	C217.678741,370.992462 216.702087,370.338013 215.725418,369.683594 
	C214.313751,367.901306 212.902069,366.118988 211.154968,363.888184 
	C209.479248,362.770996 208.138931,362.102356 206.798615,361.433746 
	C206.798615,361.433746 206.577499,361.067505 206.404144,360.615601 
	C205.442612,359.514221 204.654404,358.864685 203.866211,358.215179 
	C203.681702,357.925690 203.497208,357.636230 203.115814,356.875488 
	C199.281830,353.599487 195.644775,350.794739 192.007706,347.990021 
	C192.007706,347.990021 192.000000,348.000000 192.058151,347.660065 
	C191.113281,346.500580 190.110275,345.681061 189.107269,344.861542 
	C180.750046,337.813782 172.506424,330.625702 164.010620,323.749146 
	C148.987274,311.589203 133.992508,299.380554 118.636513,287.649506 
	C107.645851,279.253296 96.113129,271.563232 84.769997,263.632843 
	C75.454971,257.120392 66.069191,250.709030 56.700890,244.273056 
	C54.286495,242.614380 51.819843,241.031799 48.638157,238.924866 
	C60.852528,238.924866 71.978706,238.924866 83.644287,239.345093 
	C86.788727,239.828018 89.393761,239.890701 91.998795,239.953369 
	C96.025871,239.891998 100.052948,239.830612 104.609879,240.167694 
	C105.779427,240.683701 106.419121,240.801285 107.058815,240.918854 
	C110.427422,240.778610 113.796028,240.638367 117.642532,240.827316 
	C118.791389,241.370422 119.462357,241.584305 120.133324,241.798187 
	C122.762535,241.629395 125.391739,241.460587 128.505188,241.597870 
	C129.721283,242.167999 130.453156,242.432037 131.185028,242.696075 
	C133.806320,242.515564 136.427597,242.335068 139.604004,242.503967 
	C143.377762,244.083725 147.301422,244.148895 148.861969,248.119431 
	C149.210907,249.510239 149.559860,250.901031 150.013641,252.847336 
	C151.485077,255.506454 152.851685,257.610077 154.218277,259.713715 
	C154.401657,260.347748 154.585052,260.981781 155.062256,262.010071 
	C156.246353,263.259277 157.136627,264.114227 158.026901,264.969208 
	C158.026901,264.969208 158.002426,265.000000 157.954193,265.349365 
	C159.756592,267.585541 161.607239,269.472382 163.457901,271.359192 
	C164.209625,271.711365 164.961334,272.063568 165.871185,273.006470 
	C166.925659,274.469513 167.822006,275.341888 168.718353,276.214233 
	C168.718353,276.214233 168.785309,276.230438 168.785278,276.605164 
	C169.932281,277.550964 171.079300,278.122070 172.226318,278.693176 
	C172.916016,279.058960 173.605698,279.424744 174.522064,280.344360 
	C178.198242,282.892731 181.647720,284.887299 185.097198,286.881866 
	C185.097198,286.881866 185.000214,286.977722 185.063385,287.291077 
	C187.485123,288.625244 189.843689,289.646027 192.202271,290.666809 
	C192.202271,290.666809 192.621750,290.812134 192.892822,291.249207 
	C195.515335,292.337311 197.866760,292.988312 200.218201,293.639343 
	C200.944000,294.001740 201.669815,294.364105 202.778381,295.043640 
	C207.170654,296.468109 211.180161,297.575470 215.189667,298.682831 
	C215.629395,298.628876 216.069107,298.574890 216.701385,298.826691 
	C217.620575,299.387878 218.347229,299.643280 219.073883,299.898682 
	C222.424683,300.249146 225.775497,300.599640 229.706741,301.369934 
	C231.249481,301.788513 232.211792,301.787292 233.174088,301.786072 
	C233.883881,301.775970 234.593674,301.765839 235.763870,302.239014 
	C237.903839,302.696625 239.583389,302.670898 241.262955,302.645203 
	C241.950317,302.616608 242.637665,302.588013 243.813721,302.971191 
	C249.868805,303.238007 255.435181,303.093079 261.001556,302.948151 
	C267.041473,302.290314 273.081421,301.632477 279.760925,301.226257 
	C282.130646,301.321564 283.963531,301.479218 285.572510,300.952698 
	C291.386810,299.050140 297.125854,296.917511 302.893311,294.871704 
z"/>
<path fill="#8A8A8A" opacity="1.000000" stroke="none" 
	d="
M122.907433,141.516190 
	C122.907433,141.516190 122.982841,141.482574 122.945389,141.498810 
	C124.543388,141.345154 126.178795,141.027115 127.814308,141.026596 
	C211.764130,140.999908 295.713989,140.980927 379.663635,141.097321 
	C382.014648,141.100586 384.363586,142.582230 386.778992,143.754456 
	C385.997009,143.960037 385.149536,143.785675 383.882202,142.991348 
	C382.651184,142.252716 381.840027,142.030869 381.028717,142.030243 
	C350.283295,142.006500 319.537903,141.992996 288.792542,142.033722 
	C287.558197,142.035355 286.324585,142.576645 285.090637,142.866470 
	C284.890411,142.886246 284.690155,142.906006 283.903870,142.596054 
	C281.501190,142.177094 279.684570,142.010193 277.867920,142.009842 
	C228.686646,142.000198 179.505356,142.014847 130.324097,141.991104 
	C127.851799,141.989899 125.379646,141.681519 122.907433,141.516190 
z"/>
<path fill="#858585" opacity="1.000000" stroke="none" 
	d="
M69.590469,194.899063 
	C60.306770,204.383514 51.043343,213.887985 41.718948,223.332245 
	C40.207134,224.863480 38.424900,226.127716 36.436005,227.793060 
	C38.186062,228.825882 39.164074,229.403076 40.178307,230.328720 
	C38.268185,230.818161 36.321846,230.959167 34.375507,231.100159 
	C34.015598,230.621048 33.655689,230.141953 33.295776,229.662842 
	C44.377747,218.572098 55.459713,207.481369 67.022026,196.106567 
	C67.753685,195.642166 67.932907,195.406921 68.040031,195.116760 
	C68.040031,195.116760 68.029182,195.038712 68.438683,195.004486 
	C69.095604,194.946533 69.343033,194.922791 69.590469,194.899063 
z"/>
<path fill="#5A5A5A" opacity="1.000000" stroke="none" 
	d="
M258.362030,402.020416 
	C263.992340,395.321198 269.781555,388.448761 276.006104,381.996338 
	C280.791229,377.036102 286.124451,372.604645 291.557770,367.906372 
	C291.142700,369.083282 290.579590,370.488281 289.594666,371.470154 
	C279.338165,381.695160 269.013824,391.852142 258.362030,402.020416 
z"/>
<path fill="#7B7B7B" opacity="1.000000" stroke="none" 
	d="
M103.499687,159.903015 
	C102.304840,161.801147 100.932930,163.886230 99.202148,165.611221 
	C90.700600,174.084335 82.103676,182.461761 73.197891,190.847153 
	C78.016861,185.359177 83.103951,179.824142 88.361717,174.456268 
	C93.198082,169.518661 98.218079,164.760925 103.499687,159.903015 
z"/>
<path fill="#8E8E8E" opacity="1.000000" stroke="none" 
	d="
M325.888245,284.290405 
	C318.976105,287.918640 311.695312,291.448029 304.049255,294.771515 
	C308.876099,292.025635 314.057220,289.462708 319.265900,286.957062 
	C321.318878,285.969482 323.433228,285.109589 325.888245,284.290405 
z"/>
<path fill="#5A5A5A" opacity="1.000000" stroke="none" 
	d="
M338.493713,327.187805 
	C343.462677,322.705139 348.789215,318.306274 354.468750,313.864380 
	C352.971893,315.722900 351.276489,317.812958 349.237274,319.483276 
	C345.892700,322.222809 342.324921,324.689728 338.493713,327.187805 
z"/>
<path fill="#8E8E8E" opacity="1.000000" stroke="none" 
	d="
M302.483459,294.806946 
	C297.125854,296.917511 291.386810,299.050140 285.572510,300.952698 
	C283.963531,301.479218 282.130646,301.321564 280.195496,301.172028 
	C287.351501,298.824860 294.712555,296.783539 302.483459,294.806946 
z"/>
<path fill="#5A5A5A" opacity="1.000000" stroke="none" 
	d="
M313.492493,349.127350 
	C317.532471,345.073364 321.921783,341.052246 326.662231,337.023743 
	C322.622833,341.064331 318.232330,345.112274 313.492493,349.127350 
z"/>
<path fill="#FBFBFB" opacity="1.000000" stroke="none" 
	d="
M252.996735,12.024411 
	C257.786774,12.017499 262.080566,12.017499 266.374359,12.017499 
	C266.378174,12.407753 266.381989,12.798007 266.385803,13.188261 
	C256.686859,13.188261 246.987900,13.188261 237.288956,13.188261 
	C237.254532,12.841940 237.220093,12.495619 237.185669,12.149297 
	C242.290604,12.109972 247.395538,12.070648 252.996735,12.024411 
z"/>
<path fill="#898989" opacity="1.000000" stroke="none" 
	d="
M260.785614,302.573975 
	C255.435181,303.093079 249.868805,303.238007 244.157867,302.959717 
	C249.532089,302.424255 255.050888,302.312012 260.785614,302.573975 
z"/>
<path fill="#FBFBFB" opacity="1.000000" stroke="none" 
	d="
M13.160940,246.066299 
	C13.140818,253.169174 13.140818,259.782471 13.140818,266.395782 
	C12.862715,266.396088 12.584612,266.396362 12.306509,266.396667 
	C12.306509,256.793640 12.306509,247.190598 12.306509,237.587555 
	C12.598027,237.578476 12.889544,237.569382 13.181063,237.560303 
	C13.181063,240.232452 13.181063,242.904587 13.160940,246.066299 
z"/>
<path fill="#5A5A5A" opacity="1.000000" stroke="none" 
	d="
M192.008667,348.340118 
	C195.644775,350.794739 199.281830,353.599487 202.887054,356.748413 
	C199.240021,354.291809 195.624832,351.490997 192.008667,348.340118 
z"/>
<path fill="#8E8E8E" opacity="1.000000" stroke="none" 
	d="
M336.041687,277.446777 
	C333.239410,279.873199 330.146057,282.048859 326.698364,284.233185 
	C329.479553,281.893250 332.615112,279.544617 336.041687,277.446777 
z"/>
<path fill="#737373" opacity="1.000000" stroke="none" 
	d="
M148.900696,247.717163 
	C147.301422,244.148895 143.377762,244.083725 140.006943,242.509491 
	C147.020370,241.328400 147.520401,241.611832 148.900696,247.717163 
z"/>
<path fill="#5A5A5A" opacity="1.000000" stroke="none" 
	d="
M359.967133,309.608948 
	C362.198883,307.346497 364.773102,305.234467 367.696899,303.100403 
	C365.467499,305.305389 362.888550,307.532379 359.967133,309.608948 
z"/>
<path fill="#737373" opacity="1.000000" stroke="none" 
	d="
M215.118317,298.322021 
	C211.180161,297.575470 207.170654,296.468109 203.090851,294.994781 
	C207.029343,295.739624 211.038147,296.850433 215.118317,298.322021 
z"/>
<path fill="#898989" opacity="1.000000" stroke="none" 
	d="
M175.195251,187.797089 
	C177.769775,185.580933 180.695374,183.388519 183.968567,181.325882 
	C181.392883,183.577377 178.469589,185.699112 175.195251,187.797089 
z"/>
<path fill="#737373" opacity="1.000000" stroke="none" 
	d="
M185.102386,286.532715 
	C181.647720,284.887299 178.198242,282.892731 174.784912,280.541504 
	C178.249908,282.184387 181.678757,284.183960 185.102386,286.532715 
z"/>
<path fill="#737373" opacity="1.000000" stroke="none" 
	d="
M91.765869,239.685501 
	C89.393761,239.890701 86.788727,239.828018 84.090836,239.396484 
	C86.509636,239.157623 89.021294,239.287628 91.765869,239.685501 
z"/>
<path fill="#7B7B7B" opacity="1.000000" stroke="none" 
	d="
M110.726036,153.010803 
	C108.894432,155.284225 106.717384,157.489471 104.193192,159.761078 
	C106.024223,157.532501 108.202400,155.237564 110.726036,153.010803 
z"/>
<path fill="#858585" opacity="1.000000" stroke="none" 
	d="
M63.999901,230.578003 
	C67.250191,230.393555 70.675415,230.563873 74.186340,231.144547 
	C70.906296,231.347519 67.540565,231.140152 63.999901,230.578003 
z"/>
<path fill="#5A5A5A" opacity="1.000000" stroke="none" 
	d="
M249.103760,403.309601 
	C250.545502,403.590393 252.041336,404.240173 253.775558,404.993469 
	C254.833374,404.085083 256.073792,403.019897 257.663544,401.985352 
	C254.951263,407.344696 253.413971,407.633331 249.103760,403.309601 
z"/>
<path fill="#737373" opacity="1.000000" stroke="none" 
	d="
M163.646149,271.047760 
	C161.607239,269.472382 159.756592,267.585541 157.969604,265.335785 
	C159.966980,266.894012 161.900696,268.815186 163.646149,271.047760 
z"/>
<path fill="#5A5A5A" opacity="1.000000" stroke="none" 
	d="
M220.799164,374.876526 
	C223.104507,376.190979 225.464859,377.828369 227.799072,379.811829 
	C225.466690,378.505127 223.160446,376.852325 220.799164,374.876526 
z"/>
<path fill="#5A5A5A" opacity="1.000000" stroke="none" 
	d="
M301.682068,359.234131 
	C303.415741,357.196594 305.499207,355.198914 307.924225,353.318939 
	C306.187775,355.382385 304.109802,357.328156 301.682068,359.234131 
z"/>
<path fill="#737373" opacity="1.000000" stroke="none" 
	d="
M154.271317,259.350647 
	C152.851685,257.610077 151.485077,255.506454 150.307037,253.064148 
	C151.771851,254.812820 153.048096,256.900177 154.271317,259.350647 
z"/>
<path fill="#7A7A7A" opacity="1.000000" stroke="none" 
	d="
M160.165436,236.366837 
	C161.983063,236.101517 163.966415,236.126343 166.034973,236.499969 
	C164.190506,236.784851 162.260834,236.720917 160.165436,236.366837 
z"/>
<path fill="#5A5A5A" opacity="1.000000" stroke="none" 
	d="
M355.211365,313.881378 
	C356.173187,312.488312 357.524628,311.155640 359.194550,309.738464 
	C360.058502,312.770630 358.354248,313.834778 355.211365,313.881378 
z"/>
<path fill="#737373" opacity="1.000000" stroke="none" 
	d="
M192.150833,290.326172 
	C189.843689,289.646027 187.485123,288.625244 185.118362,287.251221 
	C187.439911,287.927216 189.769653,288.956390 192.150833,290.326172 
z"/>
<path fill="#949494" opacity="1.000000" stroke="none" 
	d="
M227.860077,193.822205 
	C226.006348,194.054398 224.021408,193.988434 221.952927,193.569077 
	C223.822556,193.318451 225.775711,193.421234 227.860077,193.822205 
z"/>
<path fill="#898989" opacity="1.000000" stroke="none" 
	d="
M174.286896,190.326813 
	C172.706619,190.810715 171.151108,190.962311 169.595596,191.113907 
	C169.463455,190.817047 169.331329,190.520203 169.199188,190.223358 
	C170.584808,189.344727 171.970428,188.466110 173.690384,187.805786 
	C174.120361,188.680893 174.216019,189.337708 174.286896,190.326813 
z"/>
<path fill="#737373" opacity="1.000000" stroke="none" 
	d="
M200.112518,293.294373 
	C197.866760,292.988312 195.515335,292.337311 193.102036,291.323364 
	C195.362396,291.623444 197.684616,292.286438 200.112518,293.294373 
z"/>
<path fill="#898989" opacity="1.000000" stroke="none" 
	d="
M184.141571,191.397552 
	C182.244141,191.677002 180.303787,191.575623 178.176880,191.097778 
	C180.026428,190.819778 182.062561,190.918243 184.141571,191.397552 
z"/>
<path fill="#7A7A7A" opacity="1.000000" stroke="none" 
	d="
M132.057907,233.865631 
	C133.946762,233.592178 135.827957,233.727142 137.830475,234.231873 
	C135.984604,234.492447 134.017441,234.383240 132.057907,233.865631 
z"/>
<path fill="#858585" opacity="1.000000" stroke="none" 
	d="
M89.088043,231.415466 
	C90.816330,231.214676 92.732628,231.312805 94.827087,231.782181 
	C93.095520,232.007080 91.185791,231.860718 89.088043,231.415466 
z"/>
<path fill="#6F6F6F" opacity="1.000000" stroke="none" 
	d="
M451.310211,208.027313 
	C449.610321,207.098373 447.863739,205.838242 446.127686,204.230011 
	C447.846619,205.153305 449.555054,206.424728 451.310211,208.027313 
z"/>
<path fill="#898989" opacity="1.000000" stroke="none" 
	d="
M186.172119,180.875580 
	C187.343887,179.908554 188.861465,179.059921 190.756378,178.179993 
	C189.595123,179.097122 188.056534,180.045547 186.172119,180.875580 
z"/>
<path fill="#7A7A7A" opacity="1.000000" stroke="none" 
	d="
M152.055984,235.444244 
	C153.404510,235.303024 154.922638,235.451324 156.722870,235.871902 
	C155.411835,236.007385 153.818710,235.870575 152.055984,235.444244 
z"/>
<path fill="#959595" opacity="1.000000" stroke="none" 
	d="
M268.701660,196.951584 
	C267.290741,197.142792 265.593201,197.057831 263.880249,196.600616 
	C265.381592,196.377365 266.898285,196.526398 268.701660,196.951584 
z"/>
<path fill="#7A7A7A" opacity="1.000000" stroke="none" 
	d="
M141.913452,234.640213 
	C143.506851,234.377594 145.214752,234.444412 146.940247,234.956299 
	C145.314560,235.257477 143.671249,235.113571 141.913452,234.640213 
z"/>
<path fill="#898989" opacity="1.000000" stroke="none" 
	d="
M241.159607,302.297791 
	C239.583389,302.670898 237.903839,302.696625 236.111542,302.310608 
	C237.684647,301.916016 239.370453,301.933197 241.159607,302.297791 
z"/>
<path fill="#5A5A5A" opacity="1.000000" stroke="none" 
	d="
M227.777390,380.595703 
	C229.156021,381.335358 230.479507,382.428131 231.753052,383.851227 
	C230.376144,383.104004 229.049194,382.026428 227.777390,380.595703 
z"/>
<path fill="#5A5A5A" opacity="1.000000" stroke="none" 
	d="
M245.744812,398.798004 
	C246.871964,399.723724 247.995514,400.978241 249.089478,402.592590 
	C247.953644,401.677216 246.847412,400.402008 245.744812,398.798004 
z"/>
<path fill="#5A5A5A" opacity="1.000000" stroke="none" 
	d="
M206.827789,361.773102 
	C208.138931,362.102356 209.479248,362.770996 210.834824,363.772400 
	C209.519043,363.440918 208.187988,362.776703 206.827789,361.773102 
z"/>
<path fill="#959595" opacity="1.000000" stroke="none" 
	d="
M239.965271,194.607483 
	C238.853210,194.813553 237.585220,194.746902 236.156754,194.318695 
	C237.267288,194.083008 238.538315,194.208893 239.965271,194.607483 
z"/>
<path fill="#5A5A5A" opacity="1.000000" stroke="none" 
	d="
M327.349762,337.026855 
	C328.103302,335.965179 329.190338,334.917175 330.639832,333.936707 
	C329.895966,335.016357 328.789612,336.028442 327.349762,337.026855 
z"/>
<path fill="#949494" opacity="1.000000" stroke="none" 
	d="
M202.102570,192.360535 
	C200.808807,192.509735 199.369873,192.306534 197.876923,191.710251 
	C199.201080,191.547485 200.579239,191.777802 202.102570,192.360535 
z"/>
<path fill="#7E7E7E" opacity="1.000000" stroke="none" 
	d="
M339.755798,204.756805 
	C338.703949,204.967010 337.407745,204.881622 335.983215,204.493896 
	C337.073761,204.281448 338.292572,204.371323 339.755798,204.756805 
z"/>
<path fill="#7A7A7A" opacity="1.000000" stroke="none" 
	d="
M120.242195,233.026245 
	C121.351021,232.858505 122.705299,233.001480 124.097076,233.491791 
	C122.918930,233.671738 121.703293,233.504349 120.242195,233.026245 
z"/>
<path fill="#959595" opacity="1.000000" stroke="none" 
	d="
M258.833893,196.173889 
	C257.544525,196.423859 256.184204,196.250504 254.807419,195.738144 
	C256.114929,195.516281 257.438934,195.633423 258.833893,196.173889 
z"/>
<path fill="#737373" opacity="1.000000" stroke="none" 
	d="
M172.249802,278.334839 
	C171.079300,278.122070 169.932281,277.550964 168.771271,276.636597 
	C169.929276,276.854401 171.101273,277.415436 172.249802,278.334839 
z"/>
<path fill="#5A5A5A" opacity="1.000000" stroke="none" 
	d="
M215.767975,369.965942 
	C216.702087,370.338013 217.678741,370.992462 218.525818,371.965942 
	C217.534348,371.606079 216.672455,370.927185 215.767975,369.965942 
z"/>
<path fill="#737373" opacity="1.000000" stroke="none" 
	d="
M168.846451,275.891296 
	C167.822006,275.341888 166.925659,274.469513 166.053101,273.267731 
	C167.042786,273.814972 168.008667,274.691650 168.846451,275.891296 
z"/>
<path fill="#737373" opacity="1.000000" stroke="none" 
	d="
M158.037613,264.639740 
	C157.136627,264.114227 156.246353,263.259277 155.398376,262.045166 
	C156.309891,262.560791 157.179108,263.435516 158.037613,264.639740 
z"/>
<path fill="#5A5A5A" opacity="1.000000" stroke="none" 
	d="
M189.045593,345.204285 
	C190.110275,345.681061 191.113281,346.500580 192.062622,347.656525 
	C191.000595,347.177612 189.992249,346.362305 189.045593,345.204285 
z"/>
<path fill="#959595" opacity="1.000000" stroke="none" 
	d="
M249.072601,195.495865 
	C248.173264,195.714981 247.135406,195.662521 246.045593,195.201111 
	C246.973801,194.936203 247.953918,195.080246 249.072601,195.495865 
z"/>
<path fill="#5A5A5A" opacity="1.000000" stroke="none" 
	d="
M241.721466,394.931061 
	C242.720673,395.265198 243.721680,395.921417 244.654388,396.906036 
	C243.631821,396.573975 242.677536,395.913544 241.721466,394.931061 
z"/>
<path fill="#7E7E7E" opacity="1.000000" stroke="none" 
	d="
M327.161743,203.362823 
	C326.253632,203.522629 325.287903,203.376572 324.172729,202.854172 
	C325.050262,202.670868 326.077179,202.863907 327.161743,203.362823 
z"/>
<path fill="#7E7E7E" opacity="1.000000" stroke="none" 
	d="
M321.066467,202.477386 
	C320.200409,202.691620 319.234650,202.612595 318.133240,202.176697 
	C318.987335,201.941254 319.977051,202.062683 321.066467,202.477386 
z"/>
<path fill="#7E7E7E" opacity="1.000000" stroke="none" 
	d="
M313.009216,201.572296 
	C312.350983,201.770447 311.690491,201.706680 311.012238,201.366043 
	C311.665314,201.162903 312.336151,201.236649 313.009216,201.572296 
z"/>
<path fill="#898989" opacity="1.000000" stroke="none" 
	d="
M233.054047,301.508667 
	C232.211792,301.787292 231.249481,301.788513 230.145737,301.437988 
	C230.980865,301.134583 231.957443,301.182922 233.054047,301.508667 
z"/>
<path fill="#949494" opacity="1.000000" stroke="none" 
	d="
M214.760040,193.160004 
	C213.934174,193.280350 212.912964,193.076157 211.883331,192.539597 
	C212.771515,192.416656 213.668106,192.626068 214.760040,193.160004 
z"/>
<path fill="#5A5A5A" opacity="1.000000" stroke="none" 
	d="
M295.968231,365.241211 
	C296.177734,364.523712 296.672485,363.713348 297.552429,362.906311 
	C297.376282,363.655884 296.814880,364.402130 295.968231,365.241211 
z"/>
<path fill="#8A8A8A" opacity="1.000000" stroke="none" 
	d="
M408.225403,165.417801 
	C407.378387,165.206360 406.546783,164.634872 405.721558,163.732147 
	C406.565613,163.953201 407.403198,164.505478 408.225403,165.417801 
z"/>
<path fill="#5A5A5A" opacity="1.000000" stroke="none" 
	d="
M292.683289,367.229004 
	C293.172913,366.432709 293.960968,365.682068 294.982513,365.211487 
	C294.471222,366.085876 293.726471,366.680267 292.683289,367.229004 
z"/>
<path fill="#5A5A5A" opacity="1.000000" stroke="none" 
	d="
M203.847687,358.545959 
	C204.654404,358.864685 205.442612,359.514221 206.227875,360.494446 
	C205.426361,360.175690 204.627762,359.526184 203.847687,358.545959 
z"/>
<path fill="#8A8A8A" opacity="1.000000" stroke="none" 
	d="
M424.049011,181.542206 
	C423.323700,181.290848 422.550476,180.679214 421.747192,179.749512 
	C422.478485,180.014938 423.239746,180.598434 424.049011,181.542206 
z"/>
<path fill="#737373" opacity="1.000000" stroke="none" 
	d="
M106.930542,240.679993 
	C106.419121,240.801285 105.779427,240.683701 105.071899,240.209595 
	C105.603462,240.049088 106.202873,240.245117 106.930542,240.679993 
z"/>
<path fill="#5A5A5A" opacity="1.000000" stroke="none" 
	d="
M308.663635,353.203400 
	C308.686646,352.497742 309.032806,351.797150 309.746887,351.137390 
	C309.738800,351.854980 309.362793,352.531738 308.663635,353.203400 
z"/>
<path fill="#5A5A5A" opacity="1.000000" stroke="none" 
	d="
M336.887726,329.201050 
	C336.879303,328.547668 337.169556,327.838745 337.786438,327.139404 
	C337.804169,327.814514 337.495300,328.479980 336.887726,329.201050 
z"/>
<path fill="#737373" opacity="1.000000" stroke="none" 
	d="
M131.163300,242.330353 
	C130.453156,242.432037 129.721283,242.167999 128.895233,241.573380 
	C129.581238,241.483398 130.361404,241.724014 131.163300,242.330353 
z"/>
<path fill="#5A5A5A" opacity="1.000000" stroke="none" 
	d="
M369.046204,302.856689 
	C369.247925,302.109619 369.778625,301.494049 370.629913,300.902954 
	C370.425385,301.614319 369.900269,302.301239 369.046204,302.856689 
z"/>
<path fill="#5A5A5A" opacity="1.000000" stroke="none" 
	d="
M218.754700,372.851624 
	C219.371948,372.885773 220.009567,373.191345 220.557816,373.874451 
	C219.903976,373.875671 219.339523,373.499390 218.754700,372.851624 
z"/>
<path fill="#737373" opacity="1.000000" stroke="none" 
	d="
M218.964569,299.659607 
	C218.347229,299.643280 217.620575,299.387878 217.015991,298.716095 
	C217.710480,298.673340 218.282867,299.046936 218.964569,299.659607 
z"/>
<path fill="#7E7E7E" opacity="1.000000" stroke="none" 
	d="
M332.997925,204.126068 
	C332.251190,204.301849 331.587708,204.048889 330.867615,203.529938 
	C331.567719,203.408432 332.324463,203.552887 332.997925,204.126068 
z"/>
<path fill="#737373" opacity="1.000000" stroke="none" 
	d="
M120.117035,241.505890 
	C119.462357,241.584305 118.791389,241.370422 118.100418,240.761734 
	C118.753860,240.649155 119.427307,240.931381 120.117035,241.505890 
z"/>
<path fill="#FDFDFD" opacity="1.000000" stroke="none" 
	d="
M188.526794,238.663269 
	C188.640213,238.838959 188.788834,239.026123 188.916077,239.226822 
	C188.922363,239.236725 188.742264,239.364777 188.648941,239.437805 
	C188.658966,239.325882 188.669006,239.213974 188.646698,238.908539 
	C188.614380,238.715027 188.557709,238.677444 188.526794,238.663269 
z"/>
<path fill="#7B7B7B" opacity="1.000000" stroke="none" 
	d="
M67.821297,195.193481 
	C67.932907,195.406921 67.753685,195.642166 67.302147,195.923859 
	C67.159325,195.700943 67.326202,195.449280 67.821297,195.193481 
z"/>
<path fill="#7B7B7B" opacity="1.000000" stroke="none" 
	d="
M69.552177,194.787476 
	C69.343033,194.922791 69.095604,194.946533 68.477577,195.010742 
	C68.348137,194.800735 68.589294,194.550232 69.071121,194.426880 
	C69.311790,194.554047 69.513885,194.675873 69.552177,194.787476 
z"/>
<path fill="#4D4D4D" opacity="1.000000" stroke="none" 
	d="
M122.750832,142.007355 
	C125.379646,141.681519 127.851799,141.989899 130.324097,141.991104 
	C179.505356,142.014847 228.686646,142.000198 277.867920,142.009842 
	C279.684570,142.010193 281.501190,142.177094 283.604462,142.558319 
	C236.424118,142.898514 188.957153,142.965759 141.490189,142.972092 
	C135.191544,142.972931 128.892883,142.664017 122.750832,142.007355 
z"/>
<path fill="#4D4D4D" opacity="1.000000" stroke="none" 
	d="
M285.550751,142.918533 
	C286.324585,142.576645 287.558197,142.035355 288.792542,142.033722 
	C319.537903,141.992996 350.283295,142.006500 381.028717,142.030243 
	C381.840027,142.030869 382.651184,142.252716 383.731476,142.697510 
	C351.337311,143.005966 318.674103,142.988281 285.550751,142.918533 
z"/>
</svg>